<svg
  xmlns="http://www.w3.org/2000/svg"
  viewBox="93.193 46.766 280.337 271.51"
  width="512"
  height="512"
>
  <g
    transform="matrix(0.1, 0, 0, -0.1, 80.819733, 334.067108)"
    fill="#ffffff"
    stroke="none"
  >
    <path d="M 1399 2839 C 1190 2809 965 2665 842 2483 C 821 2453 814 2449 789 2454 C 773 2457 723 2455 678 2449 C 427 2418 222 2213 190 1963 C 171 1812 215 1650 308 1534 C 363 1465 489 1377 560 1359 L 607 1347 L 613 1201 C 616 1121 625 1031 633 1001 C 647 952 646 945 630 916 C 588 843 587 817 618 748 C 649 679 717 608 775 584 C 794 576 833 570 863 570 C 907 570 921 566 940 545 C 961 522 965 507 970 417 C 976 303 990 269 1044 232 C 1130 173 1340 144 1620 153 C 1819 159 1923 178 2003 222 C 2071 260 2083 285 2090 406 C 2100 547 2111 563 2206 571 C 2291 578 2324 594 2387 664 C 2475 760 2486 806 2444 900 L 2419 957 L 2436 1026 C 2445 1064 2454 1151 2456 1220 L 2460 1345 L 2511 1362 C 2723 1434 2879 1655 2880 1883 C 2880 2061 2788 2243 2646 2344 C 2543 2418 2472 2442 2348 2448 L 2241 2453 L 2190 2521 C 2011 2762 1706 2884 1399 2839 Z M 1725 2729 C 1873 2685 2009 2598 2100 2486 C 2128 2452 2150 2422 2150 2419 C 2150 2415 2135 2403 2118 2393 C 2072 2365 1966 2266 1978 2262 C 1983 2261 2010 2272 2037 2289 C 2138 2351 2278 2377 2388 2354 C 2516 2328 2600 2280 2676 2189 C 2794 2048 2819 1831 2734 1670 C 2691 1588 2610 1508 2529 1468 C 2450 1429 2449 1429 2435 1481 C 2419 1543 2416 1547 2372 1561 C 2352 1567 2317 1581 2294 1591 C 2272 1601 2222 1617 2184 1626 C 2146 1635 2111 1647 2106 1651 C 2100 1656 2088 1652 2078 1643 C 2061 1627 2059 1628 2045 1647 C 2037 1659 2014 1671 1993 1674 C 1972 1678 1943 1683 1928 1686 C 1908 1690 1900 1688 1900 1678 C 1900 1670 1882 1653 1859 1641 C 1837 1628 1822 1614 1827 1609 C 1831 1605 1862 1600 1895 1598 C 1928 1596 1957 1592 1960 1589 C 1963 1586 2008 1573 2061 1562 C 2113 1550 2199 1526 2251 1507 L 2345 1473 L 2353 1419 C 2365 1342 2354 1098 2335 1012 L 2319 940 L 2348 878 L 2378 817 L 2357 781 C 2303 685 2257 660 2138 660 C 2035 660 1989 648 1944 608 C 1909 577 1864 503 1874 493 C 1877 490 1892 501 1908 517 C 1937 545 2016 587 2025 579 C 2027 576 2023 556 2015 535 C 2007 513 2001 463 2000 425 C 2000 324 1970 290 1868 275 L 1822 268 L 1805 344 C 1796 386 1785 420 1781 420 C 1777 420 1769 384 1763 339 C 1757 295 1751 258 1749 256 C 1747 254 1706 250 1659 247 L 1572 241 L 1555 331 C 1545 380 1534 420 1530 420 C 1526 420 1517 379 1510 330 L 1497 239 L 1411 246 C 1364 249 1322 255 1319 259 C 1315 262 1308 298 1302 339 C 1296 380 1287 417 1282 422 C 1277 427 1268 396 1261 350 C 1249 278 1245 270 1226 270 C 1182 270 1100 301 1086 323 C 1077 336 1069 382 1066 432 C 1063 482 1054 532 1045 549 C 1033 573 1032 580 1042 580 C 1064 580 1133 540 1169 506 C 1202 476 1202 476 1195 500 C 1182 548 1140 599 1094 626 C 1052 650 1033 654 931 660 C 833 665 810 669 783 688 C 751 711 690 797 690 820 C 690 827 704 857 720 887 L 750 940 L 728 1022 C 708 1092 705 1130 705 1265 C 705 1353 709 1436 712 1450 C 718 1472 735 1480 832 1513 C 1043 1582 1276 1619 1519 1621 C 1588 1622 1621.558 1627.449 1633.722 1627.233 C 1678.005 1626.445 1665 1623 1738 1614 L 1844.103 1606.579 L 1919.23 1681.268 C 1899.23 1709.268 1730 1711 1731 1716 C 1731 1726 1838 1780 1857 1780 C 1872 1780 1981 1902 1992 1930 C 1996 1941 1998 1950 1995 1950 C 1993 1950 1968 1927 1940 1900 C 1878 1839 1739 1770 1630 1745 C 1589 1736 1542 1723 1527 1718 C 1512 1712 1444 1707 1377 1708 C 1178 1708 979 1770 876 1864 C 797 1936 829 1869 911 1790 C 938 1764 986 1730 1019 1714 C 1083 1683 1098 1660 1053 1662 C 986 1664 689 1570 649 1534 C 639 1525 628 1498 624 1475 L 618 1432 L 586 1443 C 505 1471 408 1548 358 1624 C 185 1891 310 2246 610 2339 C 674 2358 800 2377 800 2367 C 800 2364 796 2351 791 2338 C 776 2299 769 2128 782 2132 C 788 2134 799 2161 807 2190 C 852 2366 1000 2560 1161 2655 C 1233 2697 1351 2739 1430 2751 C 1511 2762 1644 2752 1725 2729 Z M 2237 2404 C 2236 2403 2224 2400 2210 2398 C 2189 2395 2185 2400 2179 2433 L 2173 2471 L 2206 2439 C 2225 2421 2239 2405 2237 2404 Z M 859 2411 C 847 2388 833 2370 830 2370 C 826 2370 815 2379 805 2390 C 789 2407 789 2410 803 2410 C 812 2410 832 2421 847 2434 C 862 2447 877 2457 879 2455 C 880 2453 872 2433 859 2411 Z M 1252 1676 C 1270 1674 1291 1672 1298 1671 C 1304 1671 1310 1666 1310 1662 C 1310 1658 1254 1647 1186 1637 C 1119 1628 1055 1617 1045 1614 C 1032 1609 1029 1610 1034 1618 C 1038 1625 1048 1630 1056 1630 C 1079 1630 1100 1655 1100 1683 L 1100 1707 L 1159 1694 C 1192 1686 1234 1678 1252 1676 Z M 733 1520 C 679 1487 666 1453 660 1325 L 659 1295 L 649 1320 C 643 1334 629 1355 617 1368 L 596 1391 L 625 1414 C 641 1427 659 1453 665 1471 C 673 1494 688 1511 711 1522 C 757 1546 773 1545 733 1520 Z M 2387 1501 C 2393 1492 2401 1473 2404 1459 C 2407 1444 2423 1424 2440 1413 L 2470 1394 L 2440 1365 C 2424 1349 2408 1338 2406 1341 C 2404 1343 2400 1373 2397 1406 C 2393 1460 2388 1472 2359 1500 C 2327 1529 2327 1531 2350 1524 C 2364 1520 2380 1510 2387 1501 Z M 2409 768 C 2397 737 2314 640 2300 640 C 2297 640 2315 663 2341 690 C 2367 718 2394 757 2400 776 C 2407 796 2414 809 2417 806 C 2420 803 2417 786 2409 768 Z M 742 665 C 760 650 766 643 755 648 C 720 666 650 757 650 785 C 650 791 663 772 680 744 C 696 715 724 680 742 665 Z M 1027 606 C 1031 603 1028 594 1022 588 C 1015 581 1010 565 1010 551 C 1010 527 1009 527 970 565 C 948 586 930 608 930 613 C 930 623 1017 617 1027 606 Z M 2140 615 C 2140 612 2124 596 2105 579 C 2086 562 2070 541 2069 531 C 2068 522 2064 529 2060 545 C 2056 562 2049 582 2046 592 C 2041 603 2044 610 2057 613 C 2083 620 2140 621 2140 615 Z M 1065 291 C 1082 272 1088 261 1080 265 C 1051 280 1030 303 1030 318 C 1030 327 1031 331 1033 329 C 1034 327 1049 310 1065 291 Z M 1292 233 C 1319 209 1314 199 1278 205 C 1233 213 1226 220 1247 236 C 1270 253 1270 253 1292 233 Z M 1811 240 C 1840 224 1834 213 1794 205 C 1749 197 1741 204 1765 230 C 1786 253 1785 253 1811 240 Z M 1564 199 C 1557 187 1503 188 1495 199 C 1492 204 1500 216 1512 224 C 1532 238 1536 238 1552 223 C 1562 215 1567 203 1564 199 Z"/>
    <path d="M1752 1863 c-24 -8 -41 -17 -38 -20 5 -5 106 26 106 33 0 7 -24 3 -68 -13z"/>
    <path d="M1580 1823 c-83 -14 -420 -13 -495 2 -24 4 -26 4 -9 -4 30 -13 187 -31 275 -31 80 0 274 23 324 39 42 13 6 11 -95 -6z"/>
    <path d="M2046 1818 c3 -13 10 -30 15 -38 7 -12 8 -10 9 7 0 28 -10 53 -22 53 -5 0 -6 -10 -2 -22z"/>
    <path d="M1953 1812 c-7 -4 8 -28 39 -62 l50 -54 -7 34 c-9 44 -10 45 -43 69 -16 11 -33 17 -39 13z"/>
    <path d="M2075 1721 c6 -38 12 -48 22 -38 3 4 -1 22 -11 40 l-17 32 6 -34z"/>
    <path d="M846 1708 c-66 -34 -146 -58 -198 -58 -26 0 -48 -5 -48 -10 0 -16 94 -2 173 26 71 25 127 51 127 59 0 9 -15 4 -54 -17z"/>
    <path d="M2675 1704 c-52 -42 -145 -76 -222 -81 -58 -5 -71 -8 -51 -14 62 -16 231 36 278 87 27 27 24 31 -5 8z"/>
    <path d="M385 1690 c39 -27 120 -50 164 -49 30 1 25 3 -24 13 -33 6 -80 21 -104 34 -55 27 -76 29 -36 2z"/>
    <path d="M1581 1550 c0 -14 6 -59 13 -100 12 -66 12 -76 -2 -86 -18 -13 -2 -26 18 -14 12 7 12 22 2 94 -7 47 -17 96 -22 108 -9 23 -9 23 -9 -2z"/>
    <path d="M1843 1291 c-88 -40 -153 -141 -153 -236 0 -86 52 -178 125 -220 49 -29 136 -48 167 -36 20 7 17 9 -17 15 -22 4 -53 12 -70 19 -28 11 -26 12 45 17 101 8 156 44 198 131 37 77 49 62 21 -26 -11 -37 -18 -69 -16 -72 3 -2 20 25 37 61 30 60 32 72 28 135 -7 100 -56 172 -143 212 -55 25 -166 25 -222 0z m235 -55 c43 -29 92 -111 92 -152 0 -12 -7 -28 -17 -35 -9 -8 -33 -38 -55 -66 -42 -58 -95 -90 -167 -102 -25 -5 -53 -11 -61 -15 -24 -10 -76 29 -106 80 -61 104 -21 253 81 299 53 23 59 24 126 22 54 -2 74 -8 107 -31z"/>
    <path d="M 1203.694 1300.969 C 866.742 1264.07 870.512 1150.479 870.512 1150.479 C 884.512 1130.479 988 1014 985 1009 C 971 987 892.523 1202.04 869 1150 C 863.234 1137.243 850 1061 860 1016 C 871 965 903 895 920 885 C 933 877 933 877 910 943 C 899 974 890 1006 890 1015 C 890 1043 908 1030 920 994 C 935 950 982 895 1024 873 C 1041 864 1086 854 1124 851 C 1186 846 1191 844 1169 833 C 1156 827 1127 818 1105 813 L 1065 805 L 1123 802 C 1168 800 1192 804 1223 820 C 1417 920 1417.885 1171.661 1230.885 1289.661 C 1205.885 1306.661 1203.885 1305.661 1197.885 1284.661 C 1193.885 1271.661 1182.857 1273.088 1187.857 1272.088 C 1214.857 1262.088 1293 1204 1293 1195 C 1294 1175 1263.279 1307.494 1203.694 1300.969 Z M 1080.489 1166.281 C 1130.853 1168.367 1222 1158 1258 1156 C 1315 1151 1330 1131 1330 1052 C 1330 949 1246 844 1182 868 C 1167 874 1131 884 1101 891 C 1069 898 1035 914 1014 933 C 981 962 980 963 995 987 C 1007 1005 1010 1023 1005 1051 C 999 1085 1002 1095 1029 1127 C 1046 1148 1071.497 1165.909 1080.489 1166.281 Z"/>
    <path d="M1472 898 c-60 -65 -113 -219 -93 -270 15 -41 68 -39 116 3 l35 31 35 -31 c38 -33 90 -42 113 -19 31 31 -13 193 -74 274 -30 38 -41 42 -60 17 -13 -17 -15 -17 -25 0 -13 22 -21 22 -47 -5z m135 -108 c62 -127 52 -163 -33 -119 l-44 24 -40 -22 c-54 -31 -70 -30 -70 7 0 32 30 116 56 156 14 21 23 25 58 22 40 -3 42 -5 73 -68z"/>
  </g>
</svg>